<?xml version="1.0" encoding="UTF-8"?>
<svg id="svg235" xmlns="http://www.w3.org/2000/svg" viewBox="0 0 273.45 277.85">
    <g id="layer1">
        <path id="path48" d="M33.59,229.47c3.67,1.35,7.11,2.75,10.56,3.93,31.67,10.73,51.78-4.83,61.95-29.76,3.73-9.76,6.89-19.74,9.45-29.88,3.86-15.89,19.72-25.61,35.45-21.73,5.27,.63,9.51,4.67,10.45,9.94,.84,6.13,1.34,12.29,1.5,18.48,.28,5,0,10.05,.5,14.94,.55,8.91,8.15,15.69,16.97,15.13,2.83-.18,5.56-1.12,7.92-2.72,5.08-3.45,9.31-8.02,12.39-13.37,7.83-12.8,9.67-27.63,11.11-42.29,1.45-14.66,2.22-30.21,3.78-45.32,.69-5.27,2.06-10.42,4.06-15.33,4.1-11.89,16.95-18.18,28.72-14.04,3.67,1.29,6.94,3.51,9.51,6.46,7.37,8.52,12.01,19.09,13.33,30.33,12.69,70.63-30.12,139.35-98.62,158.31-52.56,14.04-98.18,0-136.35-39.31-.83-.84-1.55-1.8-2.33-2.75-.78-.96-.17-.39-.33-1.01h0Z"/>
        <path id="path2" d="M146.16,0c7.06,1.24,14.22,2.08,21.22,3.71,26.86,6.17,51.23,20.47,69.84,41,1.02,1.04,1.78,2.31,2.22,3.71l-3.5-1.46c-10.1-4.91-21.36-6.85-32.5-5.62-13.87,2.42-25.78,11.34-32.11,24.04-6.24,11.98-10.8,24.77-13.56,38.02-3.34,15.32-18.06,25.24-33.34,22.46-6.8-.15-12.41-5.45-13-12.3-.66-6.02-.96-12.08-.89-18.14,0-4.1,0-8.26-.33-12.3-.43-9.29-8.24-16.48-17.43-16.04-3.61,.17-7.07,1.52-9.85,3.85-4.48,3.73-8.2,8.31-10.95,13.48-6.31,12.49-9.89,26.2-10.5,40.21-1.55,15.05-2.17,30.21-3.72,45.32-.73,5.56-2.12,11.01-4.17,16.23-4.15,11.94-17.09,18.22-28.9,14.02-3.91-1.39-7.36-3.83-9.99-7.06-7.91-10.06-12.58-22.33-13.39-35.16C-7.98,90.24,32.93,25.75,97.71,6.01c8.42-2.17,16.95-3.9,25.56-5.17L127.21,0h18.95Z"/>
    </g>
</svg>
